<svg xmlns="http://www.w3.org/2000/svg" viewBox="0 0 820 420" width="820" height="420" font-family="system-ui, -apple-system, 'Segoe UI', Roboto, sans-serif" role="img" aria-label="How does your project work? Before AI you built it by hand and you know it; with AI no one knows; with AI plus LogicChart you know it again.">
  <rect x="0" y="0" width="820" height="420" rx="16" fill="#ffffff"/>

  <text x="410" y="44" text-anchor="middle" font-size="21" font-weight="600" fill="#1b1f24">How does your project work?</text>

  <text x="145" y="94" text-anchor="middle" font-size="18" font-weight="600" fill="#1b1f24">Before AI</text>
  <text x="410" y="94" text-anchor="middle" font-size="18" font-weight="600" fill="#1b1f24">With AI</text>
  <text x="675" y="94" text-anchor="middle" font-size="18" font-weight="600" fill="#1b1f24">With AI + LogicChart</text>

  <rect x="30" y="112" width="230" height="250" rx="12" fill="#f6f8fa" stroke="#d0d7de" stroke-width="1"/>
  <rect x="295" y="112" width="230" height="250" rx="12" fill="#f6f8fa" stroke="#d0d7de" stroke-width="1"/>
  <rect x="560" y="112" width="230" height="250" rx="12" fill="#f6f8fa" stroke="#d0d7de" stroke-width="1"/>

  <!-- column 1: colored squares connected -->
  <g stroke="#8a8f98" stroke-width="2" stroke-linecap="round">
    <line x1="100" y1="144" x2="200" y2="179"/>
    <line x1="100" y1="144" x2="90" y2="239"/>
    <line x1="200" y1="179" x2="190" y2="279"/>
    <line x1="90" y1="239" x2="190" y2="279"/>
    <line x1="190" y1="279" x2="135" y2="329"/>
    <line x1="90" y1="239" x2="135" y2="329"/>
  </g>
  <g>
    <rect x="83" y="127" width="34" height="34" rx="7" fill="#2f63ef"/>
    <rect x="183" y="162" width="34" height="34" rx="7" fill="#1d9e75"/>
    <rect x="73" y="222" width="34" height="34" rx="7" fill="#df9a12"/>
    <rect x="173" y="262" width="34" height="34" rx="7" fill="#7458dc"/>
    <rect x="118" y="312" width="34" height="34" rx="7" fill="#639922"/>
  </g>

  <!-- column 2: unknown -->
  <text x="410" y="280" text-anchor="middle" font-size="120" font-weight="700" fill="#c2c7ce">?</text>

  <!-- column 3: colored squares connected (same as column 1) -->
  <g stroke="#8a8f98" stroke-width="2" stroke-linecap="round">
    <line x1="630" y1="144" x2="730" y2="179"/>
    <line x1="630" y1="144" x2="620" y2="239"/>
    <line x1="730" y1="179" x2="720" y2="279"/>
    <line x1="620" y1="239" x2="720" y2="279"/>
    <line x1="720" y1="279" x2="665" y2="329"/>
    <line x1="620" y1="239" x2="665" y2="329"/>
  </g>
  <g>
    <rect x="613" y="127" width="34" height="34" rx="7" fill="#2f63ef"/>
    <rect x="713" y="162" width="34" height="34" rx="7" fill="#1d9e75"/>
    <rect x="603" y="222" width="34" height="34" rx="7" fill="#df9a12"/>
    <rect x="703" y="262" width="34" height="34" rx="7" fill="#7458dc"/>
    <rect x="648" y="312" width="34" height="34" rx="7" fill="#639922"/>
  </g>

  <!-- verdicts -->
  <text x="145" y="396" text-anchor="middle" font-size="16" font-weight="600" fill="#1d9e75">&#10003; You know</text>
  <text x="410" y="396" text-anchor="middle" font-size="16" font-weight="600" fill="#c0392b">&#10007; No one knows</text>
  <text x="675" y="396" text-anchor="middle" font-size="16" font-weight="600" fill="#1d9e75">&#10003; You know, again</text>
</svg>
